<mxfile host="65bd71144e">
    <diagram id="YwGJDJuGR18qJGGMsssY" name="Page-1">
        <mxGraphModel dx="3022" dy="2744" grid="1" gridSize="10" guides="1" tooltips="1" connect="1" arrows="1" fold="1" page="1" pageScale="1" pageWidth="850" pageHeight="1100" math="0" shadow="0">
            <root>
                <mxCell id="0"/>
                <mxCell id="1" parent="0"/>
                <mxCell id="2" value="" style="rounded=0;whiteSpace=wrap;html=1;fillColor=#f5f5f5;fontColor=#333333;strokeColor=#666666;" vertex="1" parent="1">
                    <mxGeometry x="-320" y="-300" width="600" height="840" as="geometry"/>
                </mxCell>
                <mxCell id="84" value="&lt;font style=&quot;font-size: 20px;&quot;&gt;COMP_4bit&lt;/font&gt;" style="rounded=0;whiteSpace=wrap;html=1;fillColor=#ffe6cc;strokeColor=#d79b00;" vertex="1" parent="1">
                    <mxGeometry x="-280" y="-280" width="120" height="360" as="geometry"/>
                </mxCell>
                <mxCell id="3" value="" style="group" vertex="1" connectable="0" parent="1">
                    <mxGeometry x="-40" y="30" width="260" height="140" as="geometry"/>
                </mxCell>
                <mxCell id="4" value="" style="rounded=0;whiteSpace=wrap;html=1;" vertex="1" parent="3">
                    <mxGeometry x="10" width="240" height="140" as="geometry"/>
                </mxCell>
                <mxCell id="5" value="" style="verticalLabelPosition=bottom;shadow=0;dashed=0;align=center;html=1;verticalAlign=top;shape=mxgraph.electrical.logic_gates.logic_gate;operation=and;fillColor=#fff2cc;strokeColor=#d6b656;" vertex="1" parent="3">
                    <mxGeometry y="10" width="100" height="60" as="geometry"/>
                </mxCell>
                <mxCell id="6" value="" style="verticalLabelPosition=bottom;shadow=0;dashed=0;align=center;html=1;verticalAlign=top;shape=mxgraph.electrical.logic_gates.logic_gate;operation=or;fillColor=#ffe6cc;strokeColor=#d79b00;" vertex="1" parent="3">
                    <mxGeometry x="160" y="70" width="100" height="60" as="geometry"/>
                </mxCell>
                <mxCell id="7" value="" style="endArrow=none;html=1;exitX=1;exitY=0.5;exitDx=0;exitDy=0;exitPerimeter=0;entryX=0;entryY=0.25;entryDx=0;entryDy=0;entryPerimeter=0;" edge="1" parent="3" source="5" target="6">
                    <mxGeometry width="50" height="50" relative="1" as="geometry">
                        <mxPoint x="290" y="180" as="sourcePoint"/>
                        <mxPoint x="340" y="130" as="targetPoint"/>
                        <Array as="points">
                            <mxPoint x="160" y="40"/>
                        </Array>
                    </mxGeometry>
                </mxCell>
                <mxCell id="8" value="" style="endArrow=none;html=1;entryX=0;entryY=0.25;entryDx=0;entryDy=0;entryPerimeter=0;exitX=0.96;exitY=0.831;exitDx=0;exitDy=0;exitPerimeter=0;" edge="1" parent="1" source="37" target="5">
                    <mxGeometry width="50" height="50" relative="1" as="geometry">
                        <mxPoint x="-40" y="55" as="sourcePoint"/>
                        <mxPoint x="10" y="10" as="targetPoint"/>
                        <Array as="points">
                            <mxPoint x="-80"/>
                            <mxPoint x="-80" y="55"/>
                        </Array>
                    </mxGeometry>
                </mxCell>
                <mxCell id="9" value="" style="endArrow=none;html=1;entryX=0;entryY=0.75;entryDx=0;entryDy=0;entryPerimeter=0;exitX=0.864;exitY=0.331;exitDx=0;exitDy=0;exitPerimeter=0;" edge="1" parent="1" source="21" target="5">
                    <mxGeometry width="50" height="50" relative="1" as="geometry">
                        <mxPoint x="-40" y="85" as="sourcePoint"/>
                        <mxPoint x="40" y="80" as="targetPoint"/>
                        <Array as="points">
                            <mxPoint x="-90" y="240"/>
                            <mxPoint x="-90" y="85"/>
                        </Array>
                    </mxGeometry>
                </mxCell>
                <mxCell id="10" value="" style="endArrow=none;html=1;entryX=0;entryY=0.75;entryDx=0;entryDy=0;entryPerimeter=0;exitX=0.793;exitY=0.974;exitDx=0;exitDy=0;exitPerimeter=0;" edge="1" parent="1" source="36" target="6">
                    <mxGeometry width="50" height="50" relative="1" as="geometry">
                        <mxPoint x="-40" y="145" as="sourcePoint"/>
                        <mxPoint x="40" y="150" as="targetPoint"/>
                        <Array as="points">
                            <mxPoint x="-70" y="-40"/>
                            <mxPoint x="-70" y="145"/>
                        </Array>
                    </mxGeometry>
                </mxCell>
                <mxCell id="11" value="&lt;font style=&quot;font-size: 16px;&quot;&gt;A_3&lt;/font&gt;" style="whiteSpace=wrap;html=1;fillColor=#dae8fc;strokeColor=#6c8ebf;" vertex="1" parent="1">
                    <mxGeometry x="-440" y="160" width="80" height="40" as="geometry"/>
                </mxCell>
                <mxCell id="12" value="&lt;font style=&quot;font-size: 16px;&quot;&gt;A_2&lt;/font&gt;" style="whiteSpace=wrap;html=1;fillColor=#dae8fc;strokeColor=#6c8ebf;" vertex="1" parent="1">
                    <mxGeometry x="-440" y="200" width="80" height="40" as="geometry"/>
                </mxCell>
                <mxCell id="13" value="&lt;font style=&quot;font-size: 16px;&quot;&gt;A_1&lt;/font&gt;" style="whiteSpace=wrap;html=1;fillColor=#dae8fc;strokeColor=#6c8ebf;" vertex="1" parent="1">
                    <mxGeometry x="-440" y="240" width="80" height="40" as="geometry"/>
                </mxCell>
                <mxCell id="14" value="&lt;font style=&quot;font-size: 16px;&quot;&gt;A_0&lt;/font&gt;" style="whiteSpace=wrap;html=1;fillColor=#dae8fc;strokeColor=#6c8ebf;" vertex="1" parent="1">
                    <mxGeometry x="-440" y="280" width="80" height="40" as="geometry"/>
                </mxCell>
                <mxCell id="15" value="&lt;font style=&quot;font-size: 16px;&quot;&gt;less&lt;/font&gt;" style="whiteSpace=wrap;html=1;fillColor=#e1d5e7;strokeColor=#9673a6;" vertex="1" parent="1">
                    <mxGeometry x="320" y="110" width="80" height="40" as="geometry"/>
                </mxCell>
                <mxCell id="16" value="&lt;font style=&quot;font-size: 20px;&quot;&gt;COMP_4bit&lt;/font&gt;" style="rounded=0;whiteSpace=wrap;html=1;fillColor=#ffe6cc;strokeColor=#d79b00;" vertex="1" parent="1">
                    <mxGeometry x="-280" y="160" width="120" height="360" as="geometry"/>
                </mxCell>
                <mxCell id="17" value="" style="shape=waypoint;sketch=0;size=6;pointerEvents=1;points=[];fillColor=#ffe6cc;resizable=0;rotatable=0;perimeter=centerPerimeter;snapToPoint=1;strokeColor=#d79b00;" vertex="1" parent="1">
                    <mxGeometry x="-290" y="170" width="20" height="20" as="geometry"/>
                </mxCell>
                <mxCell id="18" value="" style="shape=waypoint;sketch=0;size=6;pointerEvents=1;points=[];fillColor=#ffe6cc;resizable=0;rotatable=0;perimeter=centerPerimeter;snapToPoint=1;strokeColor=#d79b00;" vertex="1" parent="1">
                    <mxGeometry x="-290" y="210" width="20" height="20" as="geometry"/>
                </mxCell>
                <mxCell id="19" value="" style="shape=waypoint;sketch=0;size=6;pointerEvents=1;points=[];fillColor=#ffe6cc;resizable=0;rotatable=0;perimeter=centerPerimeter;snapToPoint=1;strokeColor=#d79b00;" vertex="1" parent="1">
                    <mxGeometry x="-290" y="250" width="20" height="20" as="geometry"/>
                </mxCell>
                <mxCell id="20" value="" style="shape=waypoint;sketch=0;size=6;pointerEvents=1;points=[];fillColor=#ffe6cc;resizable=0;rotatable=0;perimeter=centerPerimeter;snapToPoint=1;strokeColor=#d79b00;" vertex="1" parent="1">
                    <mxGeometry x="-290" y="290" width="20" height="20" as="geometry"/>
                </mxCell>
                <mxCell id="21" value="" style="shape=waypoint;sketch=0;size=6;pointerEvents=1;points=[];fillColor=#ffe6cc;resizable=0;rotatable=0;perimeter=centerPerimeter;snapToPoint=1;strokeColor=#d79b00;" vertex="1" parent="1">
                    <mxGeometry x="-170" y="230" width="20" height="20" as="geometry"/>
                </mxCell>
                <mxCell id="22" value="" style="shape=waypoint;sketch=0;size=6;pointerEvents=1;points=[];fillColor=#ffe6cc;resizable=0;rotatable=0;perimeter=centerPerimeter;snapToPoint=1;strokeColor=#d79b00;" vertex="1" parent="1">
                    <mxGeometry x="-170" y="270" width="20" height="20" as="geometry"/>
                </mxCell>
                <mxCell id="23" style="edgeStyle=none;html=1;exitX=1;exitY=0.5;exitDx=0;exitDy=0;entryX=0.321;entryY=0.429;entryDx=0;entryDy=0;entryPerimeter=0;" edge="1" parent="1" source="11" target="17">
                    <mxGeometry relative="1" as="geometry"/>
                </mxCell>
                <mxCell id="24" style="edgeStyle=none;html=1;exitX=1;exitY=0.5;exitDx=0;exitDy=0;entryX=-0.021;entryY=0.371;entryDx=0;entryDy=0;entryPerimeter=0;" edge="1" parent="1" source="12" target="18">
                    <mxGeometry relative="1" as="geometry"/>
                </mxCell>
                <mxCell id="25" style="edgeStyle=none;html=1;exitX=1;exitY=0.5;exitDx=0;exitDy=0;entryX=0.407;entryY=0.343;entryDx=0;entryDy=0;entryPerimeter=0;" edge="1" parent="1" source="13" target="19">
                    <mxGeometry relative="1" as="geometry"/>
                </mxCell>
                <mxCell id="26" style="edgeStyle=none;html=1;exitX=1;exitY=0.5;exitDx=0;exitDy=0;entryX=0.35;entryY=0.457;entryDx=0;entryDy=0;entryPerimeter=0;" edge="1" parent="1" source="14" target="20">
                    <mxGeometry relative="1" as="geometry"/>
                </mxCell>
                <mxCell id="36" value="" style="shape=waypoint;sketch=0;size=6;pointerEvents=1;points=[];fillColor=#ffe6cc;resizable=0;rotatable=0;perimeter=centerPerimeter;snapToPoint=1;strokeColor=#d79b00;" vertex="1" parent="1">
                    <mxGeometry x="-170" y="-50" width="20" height="20" as="geometry"/>
                </mxCell>
                <mxCell id="37" value="" style="shape=waypoint;sketch=0;size=6;pointerEvents=1;points=[];fillColor=#ffe6cc;resizable=0;rotatable=0;perimeter=centerPerimeter;snapToPoint=1;strokeColor=#d79b00;" vertex="1" parent="1">
                    <mxGeometry x="-170" y="-10" width="20" height="20" as="geometry"/>
                </mxCell>
                <mxCell id="42" value="" style="verticalLabelPosition=bottom;shadow=0;dashed=0;align=center;html=1;verticalAlign=top;shape=mxgraph.electrical.logic_gates.logic_gate;operation=and;fillColor=#fff2cc;strokeColor=#d6b656;" vertex="1" parent="1">
                    <mxGeometry x="120" y="290" width="100" height="60" as="geometry"/>
                </mxCell>
                <mxCell id="43" value="" style="endArrow=none;html=1;exitX=0.875;exitY=0.75;exitDx=0;exitDy=0;exitPerimeter=0;entryX=0;entryY=0.25;entryDx=0;entryDy=0;entryPerimeter=0;" edge="1" parent="1" source="37" target="42">
                    <mxGeometry width="50" height="50" relative="1" as="geometry">
                        <mxPoint y="170" as="sourcePoint"/>
                        <mxPoint x="50" y="120" as="targetPoint"/>
                        <Array as="points">
                            <mxPoint x="-80"/>
                            <mxPoint x="-80" y="305"/>
                        </Array>
                    </mxGeometry>
                </mxCell>
                <mxCell id="44" value="" style="endArrow=none;html=1;exitX=0.698;exitY=0.45;exitDx=0;exitDy=0;exitPerimeter=0;entryX=0;entryY=0.75;entryDx=0;entryDy=0;entryPerimeter=0;" edge="1" parent="1" source="22" target="42">
                    <mxGeometry width="50" height="50" relative="1" as="geometry">
                        <mxPoint y="260" as="sourcePoint"/>
                        <mxPoint x="50" y="210" as="targetPoint"/>
                        <Array as="points">
                            <mxPoint x="-90" y="280"/>
                            <mxPoint x="-90" y="335"/>
                        </Array>
                    </mxGeometry>
                </mxCell>
                <mxCell id="45" value="&lt;font style=&quot;font-size: 16px;&quot;&gt;equal&lt;/font&gt;" style="whiteSpace=wrap;html=1;fillColor=#e1d5e7;strokeColor=#9673a6;" vertex="1" parent="1">
                    <mxGeometry x="320" y="300" width="80" height="40" as="geometry"/>
                </mxCell>
                <mxCell id="46" value="" style="endArrow=none;html=1;entryX=1;entryY=0.5;entryDx=0;entryDy=0;entryPerimeter=0;exitX=0;exitY=0.5;exitDx=0;exitDy=0;" edge="1" parent="1" source="15" target="6">
                    <mxGeometry width="50" height="50" relative="1" as="geometry">
                        <mxPoint x="70" y="350" as="sourcePoint"/>
                        <mxPoint x="120" y="300" as="targetPoint"/>
                    </mxGeometry>
                </mxCell>
                <mxCell id="47" value="" style="endArrow=none;html=1;entryX=0;entryY=0.5;entryDx=0;entryDy=0;exitX=1;exitY=0.5;exitDx=0;exitDy=0;exitPerimeter=0;" edge="1" parent="1" source="42" target="45">
                    <mxGeometry width="50" height="50" relative="1" as="geometry">
                        <mxPoint x="70" y="350" as="sourcePoint"/>
                        <mxPoint x="120" y="300" as="targetPoint"/>
                    </mxGeometry>
                </mxCell>
                <mxCell id="48" value="&lt;font style=&quot;font-size: 16px;&quot;&gt;B_3&lt;/font&gt;" style="whiteSpace=wrap;html=1;fillColor=#dae8fc;strokeColor=#6c8ebf;" vertex="1" parent="1">
                    <mxGeometry x="-440" y="360" width="80" height="40" as="geometry"/>
                </mxCell>
                <mxCell id="49" value="&lt;font style=&quot;font-size: 16px;&quot;&gt;B_2&lt;/font&gt;" style="whiteSpace=wrap;html=1;fillColor=#dae8fc;strokeColor=#6c8ebf;" vertex="1" parent="1">
                    <mxGeometry x="-440" y="400" width="80" height="40" as="geometry"/>
                </mxCell>
                <mxCell id="50" value="&lt;font style=&quot;font-size: 16px;&quot;&gt;B_1&lt;/font&gt;" style="whiteSpace=wrap;html=1;fillColor=#dae8fc;strokeColor=#6c8ebf;" vertex="1" parent="1">
                    <mxGeometry x="-440" y="440" width="80" height="40" as="geometry"/>
                </mxCell>
                <mxCell id="51" value="&lt;font style=&quot;font-size: 16px;&quot;&gt;B_0&lt;/font&gt;" style="whiteSpace=wrap;html=1;fillColor=#dae8fc;strokeColor=#6c8ebf;" vertex="1" parent="1">
                    <mxGeometry x="-440" y="480" width="80" height="40" as="geometry"/>
                </mxCell>
                <mxCell id="52" value="" style="shape=waypoint;sketch=0;size=6;pointerEvents=1;points=[];fillColor=#ffe6cc;resizable=0;rotatable=0;perimeter=centerPerimeter;snapToPoint=1;strokeColor=#d79b00;" vertex="1" parent="1">
                    <mxGeometry x="-290" y="370" width="20" height="20" as="geometry"/>
                </mxCell>
                <mxCell id="53" value="" style="shape=waypoint;sketch=0;size=6;pointerEvents=1;points=[];fillColor=#ffe6cc;resizable=0;rotatable=0;perimeter=centerPerimeter;snapToPoint=1;strokeColor=#d79b00;" vertex="1" parent="1">
                    <mxGeometry x="-290" y="410" width="20" height="20" as="geometry"/>
                </mxCell>
                <mxCell id="54" value="" style="shape=waypoint;sketch=0;size=6;pointerEvents=1;points=[];fillColor=#ffe6cc;resizable=0;rotatable=0;perimeter=centerPerimeter;snapToPoint=1;strokeColor=#d79b00;" vertex="1" parent="1">
                    <mxGeometry x="-290" y="450" width="20" height="20" as="geometry"/>
                </mxCell>
                <mxCell id="55" value="" style="shape=waypoint;sketch=0;size=6;pointerEvents=1;points=[];fillColor=#ffe6cc;resizable=0;rotatable=0;perimeter=centerPerimeter;snapToPoint=1;strokeColor=#d79b00;" vertex="1" parent="1">
                    <mxGeometry x="-290" y="490" width="20" height="20" as="geometry"/>
                </mxCell>
                <mxCell id="56" style="edgeStyle=none;html=1;exitX=1;exitY=0.5;exitDx=0;exitDy=0;entryX=0.321;entryY=0.429;entryDx=0;entryDy=0;entryPerimeter=0;" edge="1" source="48" target="52" parent="1">
                    <mxGeometry relative="1" as="geometry"/>
                </mxCell>
                <mxCell id="57" style="edgeStyle=none;html=1;exitX=1;exitY=0.5;exitDx=0;exitDy=0;entryX=-0.021;entryY=0.371;entryDx=0;entryDy=0;entryPerimeter=0;" edge="1" source="49" target="53" parent="1">
                    <mxGeometry relative="1" as="geometry"/>
                </mxCell>
                <mxCell id="58" style="edgeStyle=none;html=1;exitX=1;exitY=0.5;exitDx=0;exitDy=0;entryX=0.407;entryY=0.343;entryDx=0;entryDy=0;entryPerimeter=0;" edge="1" source="50" target="54" parent="1">
                    <mxGeometry relative="1" as="geometry"/>
                </mxCell>
                <mxCell id="59" style="edgeStyle=none;html=1;exitX=1;exitY=0.5;exitDx=0;exitDy=0;entryX=0.35;entryY=0.457;entryDx=0;entryDy=0;entryPerimeter=0;" edge="1" source="51" target="55" parent="1">
                    <mxGeometry relative="1" as="geometry"/>
                </mxCell>
                <mxCell id="60" value="&lt;font style=&quot;font-size: 16px;&quot;&gt;A_7&lt;/font&gt;" style="whiteSpace=wrap;html=1;fillColor=#dae8fc;strokeColor=#6c8ebf;" vertex="1" parent="1">
                    <mxGeometry x="-440" y="-280" width="80" height="40" as="geometry"/>
                </mxCell>
                <mxCell id="61" value="&lt;font style=&quot;font-size: 16px;&quot;&gt;A_6&lt;/font&gt;" style="whiteSpace=wrap;html=1;fillColor=#dae8fc;strokeColor=#6c8ebf;" vertex="1" parent="1">
                    <mxGeometry x="-440" y="-240" width="80" height="40" as="geometry"/>
                </mxCell>
                <mxCell id="62" value="&lt;font style=&quot;font-size: 16px;&quot;&gt;A_5&lt;/font&gt;" style="whiteSpace=wrap;html=1;fillColor=#dae8fc;strokeColor=#6c8ebf;" vertex="1" parent="1">
                    <mxGeometry x="-440" y="-200" width="80" height="40" as="geometry"/>
                </mxCell>
                <mxCell id="63" value="&lt;font style=&quot;font-size: 16px;&quot;&gt;A_4&lt;/font&gt;" style="whiteSpace=wrap;html=1;fillColor=#dae8fc;strokeColor=#6c8ebf;" vertex="1" parent="1">
                    <mxGeometry x="-440" y="-160" width="80" height="40" as="geometry"/>
                </mxCell>
                <mxCell id="64" value="" style="shape=waypoint;sketch=0;size=6;pointerEvents=1;points=[];fillColor=#ffe6cc;resizable=0;rotatable=0;perimeter=centerPerimeter;snapToPoint=1;strokeColor=#d79b00;" vertex="1" parent="1">
                    <mxGeometry x="-290" y="-270" width="20" height="20" as="geometry"/>
                </mxCell>
                <mxCell id="65" value="" style="shape=waypoint;sketch=0;size=6;pointerEvents=1;points=[];fillColor=#ffe6cc;resizable=0;rotatable=0;perimeter=centerPerimeter;snapToPoint=1;strokeColor=#d79b00;" vertex="1" parent="1">
                    <mxGeometry x="-290" y="-230" width="20" height="20" as="geometry"/>
                </mxCell>
                <mxCell id="66" value="" style="shape=waypoint;sketch=0;size=6;pointerEvents=1;points=[];fillColor=#ffe6cc;resizable=0;rotatable=0;perimeter=centerPerimeter;snapToPoint=1;strokeColor=#d79b00;" vertex="1" parent="1">
                    <mxGeometry x="-290" y="-190" width="20" height="20" as="geometry"/>
                </mxCell>
                <mxCell id="67" value="" style="shape=waypoint;sketch=0;size=6;pointerEvents=1;points=[];fillColor=#ffe6cc;resizable=0;rotatable=0;perimeter=centerPerimeter;snapToPoint=1;strokeColor=#d79b00;" vertex="1" parent="1">
                    <mxGeometry x="-290" y="-150" width="20" height="20" as="geometry"/>
                </mxCell>
                <mxCell id="68" style="edgeStyle=none;html=1;exitX=1;exitY=0.5;exitDx=0;exitDy=0;entryX=0.321;entryY=0.429;entryDx=0;entryDy=0;entryPerimeter=0;" edge="1" source="60" target="64" parent="1">
                    <mxGeometry relative="1" as="geometry"/>
                </mxCell>
                <mxCell id="69" style="edgeStyle=none;html=1;exitX=1;exitY=0.5;exitDx=0;exitDy=0;entryX=-0.021;entryY=0.371;entryDx=0;entryDy=0;entryPerimeter=0;" edge="1" source="61" target="65" parent="1">
                    <mxGeometry relative="1" as="geometry"/>
                </mxCell>
                <mxCell id="70" style="edgeStyle=none;html=1;exitX=1;exitY=0.5;exitDx=0;exitDy=0;entryX=0.407;entryY=0.343;entryDx=0;entryDy=0;entryPerimeter=0;" edge="1" source="62" target="66" parent="1">
                    <mxGeometry relative="1" as="geometry"/>
                </mxCell>
                <mxCell id="71" style="edgeStyle=none;html=1;exitX=1;exitY=0.5;exitDx=0;exitDy=0;entryX=0.35;entryY=0.457;entryDx=0;entryDy=0;entryPerimeter=0;" edge="1" source="63" target="67" parent="1">
                    <mxGeometry relative="1" as="geometry"/>
                </mxCell>
                <mxCell id="72" value="&lt;font style=&quot;font-size: 16px;&quot;&gt;B_7&lt;/font&gt;" style="whiteSpace=wrap;html=1;fillColor=#dae8fc;strokeColor=#6c8ebf;" vertex="1" parent="1">
                    <mxGeometry x="-440" y="-80" width="80" height="40" as="geometry"/>
                </mxCell>
                <mxCell id="73" value="&lt;font style=&quot;font-size: 16px;&quot;&gt;B_6&lt;/font&gt;" style="whiteSpace=wrap;html=1;fillColor=#dae8fc;strokeColor=#6c8ebf;" vertex="1" parent="1">
                    <mxGeometry x="-440" y="-40" width="80" height="40" as="geometry"/>
                </mxCell>
                <mxCell id="74" value="&lt;font style=&quot;font-size: 16px;&quot;&gt;B_5&lt;/font&gt;" style="whiteSpace=wrap;html=1;fillColor=#dae8fc;strokeColor=#6c8ebf;" vertex="1" parent="1">
                    <mxGeometry x="-440" width="80" height="40" as="geometry"/>
                </mxCell>
                <mxCell id="75" value="&lt;font style=&quot;font-size: 16px;&quot;&gt;B_4&lt;/font&gt;" style="whiteSpace=wrap;html=1;fillColor=#dae8fc;strokeColor=#6c8ebf;" vertex="1" parent="1">
                    <mxGeometry x="-440" y="40" width="80" height="40" as="geometry"/>
                </mxCell>
                <mxCell id="76" value="" style="shape=waypoint;sketch=0;size=6;pointerEvents=1;points=[];fillColor=#ffe6cc;resizable=0;rotatable=0;perimeter=centerPerimeter;snapToPoint=1;strokeColor=#d79b00;" vertex="1" parent="1">
                    <mxGeometry x="-290" y="-70" width="20" height="20" as="geometry"/>
                </mxCell>
                <mxCell id="77" value="" style="shape=waypoint;sketch=0;size=6;pointerEvents=1;points=[];fillColor=#ffe6cc;resizable=0;rotatable=0;perimeter=centerPerimeter;snapToPoint=1;strokeColor=#d79b00;" vertex="1" parent="1">
                    <mxGeometry x="-290" y="-30" width="20" height="20" as="geometry"/>
                </mxCell>
                <mxCell id="78" value="" style="shape=waypoint;sketch=0;size=6;pointerEvents=1;points=[];fillColor=#ffe6cc;resizable=0;rotatable=0;perimeter=centerPerimeter;snapToPoint=1;strokeColor=#d79b00;" vertex="1" parent="1">
                    <mxGeometry x="-290" y="10" width="20" height="20" as="geometry"/>
                </mxCell>
                <mxCell id="79" value="" style="shape=waypoint;sketch=0;size=6;pointerEvents=1;points=[];fillColor=#ffe6cc;resizable=0;rotatable=0;perimeter=centerPerimeter;snapToPoint=1;strokeColor=#d79b00;" vertex="1" parent="1">
                    <mxGeometry x="-290" y="50" width="20" height="20" as="geometry"/>
                </mxCell>
                <mxCell id="80" style="edgeStyle=none;html=1;exitX=1;exitY=0.5;exitDx=0;exitDy=0;entryX=0.321;entryY=0.429;entryDx=0;entryDy=0;entryPerimeter=0;" edge="1" source="72" target="76" parent="1">
                    <mxGeometry relative="1" as="geometry"/>
                </mxCell>
                <mxCell id="81" style="edgeStyle=none;html=1;exitX=1;exitY=0.5;exitDx=0;exitDy=0;entryX=-0.021;entryY=0.371;entryDx=0;entryDy=0;entryPerimeter=0;" edge="1" source="73" target="77" parent="1">
                    <mxGeometry relative="1" as="geometry"/>
                </mxCell>
                <mxCell id="82" style="edgeStyle=none;html=1;exitX=1;exitY=0.5;exitDx=0;exitDy=0;entryX=0.407;entryY=0.343;entryDx=0;entryDy=0;entryPerimeter=0;" edge="1" source="74" target="78" parent="1">
                    <mxGeometry relative="1" as="geometry"/>
                </mxCell>
                <mxCell id="83" style="edgeStyle=none;html=1;exitX=1;exitY=0.5;exitDx=0;exitDy=0;entryX=0.35;entryY=0.457;entryDx=0;entryDy=0;entryPerimeter=0;" edge="1" source="75" target="79" parent="1">
                    <mxGeometry relative="1" as="geometry"/>
                </mxCell>
            </root>
        </mxGraphModel>
    </diagram>
</mxfile>